<svg width="29" height="27" viewBox="0 0 29 27" fill="none" xmlns="http://www.w3.org/2000/svg">
<path d="M8.27387 16.9811H9.58376L10.048 16.5643C8.4231 14.8045 7.44483 12.5197 7.44483 10.0343C7.44483 4.49228 12.2699 0 18.2224 0C24.175 0 29 4.49228 29 10.0343C29 15.5763 24.175 20.0686 18.2224 20.0686C15.5529 20.0686 13.0989 19.1578 11.2087 17.6449L10.761 18.0772V19.2967L2.47055 27L0 24.6998L8.27387 16.9811ZM18.2224 16.9811C22.3511 16.9811 25.6838 13.8782 25.6838 10.0343C25.6838 6.19039 22.3511 3.08748 18.2224 3.08748C14.0938 3.08748 10.761 6.19039 10.761 10.0343C10.761 13.8782 14.0938 16.9811 18.2224 16.9811Z" fill="black"/>
</svg>
